<?xml version="1.0" encoding="UTF-8" standalone="no"?>
<svg
   xmlns:dc="http://purl.org/dc/elements/1.1/"
   xmlns:cc="http://creativecommons.org/ns#"
   xmlns:rdf="http://www.w3.org/1999/02/22-rdf-syntax-ns#"
   xmlns:svg="http://www.w3.org/2000/svg"
   xmlns="http://www.w3.org/2000/svg"
   id="svg6"
   version="1.1"
   width="18"
   viewBox="0 0 24 24"
   height="18"
   fill="#000000">
  <metadata
     id="metadata12">
    <rdf:RDF>
      <cc:Work
         rdf:about="">
        <dc:format>image/svg+xml</dc:format>
        <dc:type
           rdf:resource="http://purl.org/dc/dcmitype/StillImage" />
        <dc:title></dc:title>
      </cc:Work>
    </rdf:RDF>
  </metadata>
  <defs
     id="defs10" />
  <path
     id="path2"
     fill="none"
     d="M0 0h24v24H0z" />
  <path
     id="path4"
     d="M20 2H4c-1.1 0-2 .9-2 2v16c0 1.1.9 2 2 2h16c1.1 0 2-.9 2-2V4c0-1.1-.9-2-2-2zM8 20H4v-4h4v4zm0-6H4v-4h4v4zm0-6H4V4h4v4zm6 12h-4v-4h4v4zm0-6h-4v-4h4v4zm0-6h-4V4h4v4zm6 12h-4v-4h4v4zm0-6h-4v-4h4v4zm0-6h-4V4h4v4z" />
  <circle
     r="1"
     cy="9"
     cx="9"
     id="path4497"
     style="fill:#ffffff;fill-opacity:1;stroke-width:1.33333325" />
  <circle
     r="1"
     cy="9"
     cx="15"
     id="path4516"
     style="fill:#ffffff;fill-opacity:1;stroke-width:1.33333325" />
  <circle
     r="1"
     cy="15"
     cx="9"
     id="path4520"
     style="fill:#ffffff;fill-opacity:1;stroke-width:1.33333325" />
  <circle
     r="1"
     cy="15"
     cx="15"
     id="path4522"
     style="fill:#ffffff;fill-opacity:1;stroke-width:1.33333325" />
  <circle
     r="1"
     cy="15"
     cx="20.994791"
     id="path4522-8"
     style="fill:#ffffff;fill-opacity:1;stroke-width:1.33333325" />
  <circle
     r="1"
     cy="20.994791"
     cx="14.999999"
     id="path4522-8-5"
     style="fill:#ffffff;fill-opacity:1;stroke-width:1.33333325" />
  <circle
     r="1"
     cy="21"
     cx="9"
     id="path4522-8-5-8"
     style="fill:#ffffff;fill-opacity:1;stroke-width:1.33333325" />
  <circle
     r="1"
     cy="14.994792"
     cx="2.9947917"
     id="path4522-8-5-6"
     style="fill:#ffffff;fill-opacity:1;stroke-width:1.33333325" />
  <circle
     r="1"
     cy="8.994792"
     cx="2.9947915"
     id="path4522-8-5-7"
     style="fill:#ffffff;fill-opacity:1;stroke-width:1.33333325" />
  <circle
     r="1"
     cy="3"
     cx="8.994792"
     id="path4522-8-5-76"
     style="fill:#ffffff;fill-opacity:1;stroke-width:1.33333325" />
  <circle
     r="1"
     cy="3"
     cx="14.994792"
     id="path4522-8-5-4"
     style="fill:#ffffff;fill-opacity:1;stroke-width:1.33333325" />
  <circle
     r="1"
     cy="8.994792"
     cx="21"
     id="path4522-8-5-2"
     style="fill:#ffffff;fill-opacity:1;stroke-width:1.33333325" />
  <path
     transform="scale(1.3333333)"
     id="path4599"
     d="M 2.6818315,16.455654 C 2.3864423,16.391595 2.041587,16.178195 1.8513775,15.941762 1.7957358,15.872598 1.7115325,15.73646 1.6642592,15.639233 1.507413,15.316647 1.5090946,15.342069 1.5090946,13.293535 v -1.82828 l 0.056122,0.112623 c 0.068046,0.13655 0.239548,0.301823 0.3810192,0.36718 0.083308,0.03849 0.1441667,0.04799 0.3031107,0.04731 0.1741726,-7.41e-4 0.2147662,-0.0088 0.3268265,-0.06479 C 2.8828868,11.774296 3.0559691,11.430155 2.9891557,11.106442 2.9527466,10.930039 2.8943064,10.822948 2.7665362,10.698496 2.6214553,10.557183 2.458114,10.494412 2.2345828,10.494071 1.9491189,10.493636 1.7239397,10.632405 1.5768482,10.899408 l -0.066953,0.121534 -4.003e-4,-2.0309371 -4.003e-4,-2.0309371 0.067801,0.1356825 c 0.073902,0.1478901 0.1920355,0.2628078 0.3503733,0.3408339 0.084638,0.041708 0.1371002,0.049785 0.3220776,0.049586 0.1960758,-2.21e-4 0.2335321,-0.00684 0.3324649,-0.058851 C 3.0465467,7.1820051 3.1469671,6.5853939 2.785475,6.2163288 2.7336726,6.1634412 2.6365985,6.0942345 2.5697548,6.0625364 2.465288,6.0129967 2.4187412,6.0049032 2.2382985,6.0049032 c -0.1972402,0 -0.2183778,0.00458 -0.3498815,0.075882 C 1.7366848,6.1630492 1.624672,6.2825993 1.5545986,6.4370661 L 1.5100652,6.5352333 1.5095799,4.7057678 C 1.5090425,2.6798247 1.5085697,2.6875775 1.6513483,2.380981 1.8515085,1.9511654 2.248533,1.6358916 2.70693,1.5427526 2.9492525,1.4935164 6.6088864,1.4926818 6.4748333,1.5418933 6.3691723,1.5806818 6.212831,1.6923541 6.1553594,1.7700885 6.0302331,1.939331 6.0058403,2.0175022 6.0061066,2.2483985 c 2.21e-4,0.1899248 0.00791,0.2364938 0.054716,0.3314563 0.073045,0.1481886 0.218376,0.2891319 0.3715806,0.3603629 0.1704541,0.079251 0.4459913,0.083112 0.6102517,0.00855 0.1649528,-0.074875 0.283889,-0.1846342 0.3678204,-0.3394411 0.072055,-0.1329006 0.075882,-0.1511034 0.075882,-0.36093 0,-0.2308086 -0.024521,-0.3092561 -0.1495075,-0.47831 -0.057472,-0.077734 -0.213813,-0.1894067 -0.319474,-0.2281952 -0.072215,-0.02651 0.1928725,-0.030843 1.9695885,-0.03219 l 2.0530347,-0.00156 -0.134265,0.067093 c -0.159951,0.079928 -0.276961,0.2027341 -0.354633,0.3721969 -0.04551,0.099291 -0.05718,0.1597145 -0.05823,0.3014213 -0.0012,0.1568703 0.007,0.1940481 0.07072,0.3235541 0.08383,0.1702887 0.203617,0.2871476 0.378309,0.3690586 0.104541,0.049018 0.153898,0.058066 0.312011,0.057195 0.157809,-8.691e-4 0.207694,-0.01063 0.312152,-0.061079 0.146786,-0.070892 0.312556,-0.2396292 0.379286,-0.3860763 0.06687,-0.1467602 0.06618,-0.4567675 -0.0014,-0.6062761 C 11.875239,1.793119 11.727964,1.6440781 11.574284,1.5711195 l -0.132583,-0.062943 1.840514,-1.74e-5 c 2.062114,-1.96e-5 2.035153,-0.00179 2.357933,0.1551471 0.32484,0.1579423 0.557645,0.3937662 0.708484,0.7176704 0.143023,0.3071205 0.142421,0.2971387 0.140697,2.3358353 -0.0014,1.5955498 -0.0056,1.8294079 -0.03219,1.7570684 -0.03879,-0.105661 -0.15046,-0.2620023 -0.228195,-0.3194739 -0.169066,-0.1249962 -0.247495,-0.1495082 -0.47831,-0.1494906 -0.198985,1.53e-5 -0.232588,0.00614 -0.337735,0.061522 -0.156073,0.08221 -0.283981,0.21427 -0.354575,0.3660851 -0.04831,0.1038853 -0.05803,0.1562846 -0.05803,0.3126287 0,0.227233 0.06288,0.3854415 0.212726,0.5351994 0.159512,0.1594215 0.277862,0.2045015 0.537618,0.2047813 0.199255,2.209e-4 0.232446,-0.00581 0.337735,-0.061267 0.151239,-0.079664 0.269424,-0.1993362 0.343335,-0.3476563 l 0.05918,-0.1187639 -0.0016,2.0538436 c -0.0013,1.7774063 -0.0057,2.0426123 -0.03219,1.9703973 -0.106547,-0.290236 -0.387821,-0.482485 -0.70591,-0.482485 -0.301244,0 -0.532408,0.138265 -0.675715,0.40416 -0.06955,0.129054 -0.07531,0.154796 -0.07573,0.338548 -3.64e-4,0.160707 0.0092,0.219739 0.04969,0.307599 0.07648,0.165834 0.185934,0.284165 0.34023,0.36782 0.131514,0.0713 0.152626,0.07588 0.349882,0.07587 0.168468,-1.3e-5 0.230325,-0.0094 0.313241,-0.04775 0.152461,-0.07044 0.302573,-0.219347 0.375082,-0.372079 l 0.06294,-0.132582 1.7e-5,1.840514 c 2e-5,2.062113 0.0018,2.035152 -0.155147,2.357932 -0.157649,0.324238 -0.39135,0.555152 -0.71767,0.709112 -0.30056,0.141806 -0.297617,0.141628 -2.335836,0.141608 l -1.840514,-1.7e-5 0.132583,-0.06294 c 0.152942,-0.07261 0.301929,-0.222923 0.371768,-0.375082 0.07323,-0.159551 0.06826,-0.458026 -0.01044,-0.62587 -0.07451,-0.158933 -0.210178,-0.294598 -0.369111,-0.369111 -0.104392,-0.04894 -0.155598,-0.05851 -0.313094,-0.05851 -0.168206,0 -0.204025,0.0077 -0.335817,0.07263 -0.271321,0.133571 -0.419639,0.373863 -0.418903,0.678674 1.99e-4,0.08507 0.01601,0.198004 0.03513,0.250957 0.07321,0.202812 0.251436,0.382862 0.45204,0.456674 0.06793,0.02499 -0.233864,0.02974 -1.9728426,0.03106 l -2.0530333,0.0016 0.1356825,-0.0678 C 7.5503332,16.194986 7.645592,15.576335 7.281934,15.212677 7.0820069,15.01275 6.8033719,14.945535 6.52501,15.030084 c -0.1377048,0.04183 -0.1787234,0.06731 -0.2980525,0.185194 -0.1804066,0.178217 -0.2397059,0.325845 -0.2279881,0.567586 0.013941,0.287607 0.1714158,0.528374 0.4263057,0.651792 l 0.1109068,0.0537 -1.8561553,-9.5e-4 c -1.5017758,-7.68e-4 -1.8832737,-0.0068 -1.9981951,-0.03175 z M 6.0169003,13.495816 V 11.982165 H 4.5032499 2.9895994 v 1.513651 1.51365 h 1.5136505 1.5136504 z m 4.4857087,0 V 11.982165 H 9.0000071 7.4974052 v 1.513651 1.51365 h 1.5026019 1.5026019 z m 4.507806,0 v -1.513651 h -1.513651 -1.51365 v 1.513651 1.51365 h 1.51365 1.513651 z M 7.0830793,11.930596 C 7.2983018,11.825297 7.4564924,11.612105 7.4932286,11.377842 7.5449306,11.04814 7.3844641,10.722827 7.0996576,10.57996 6.9681101,10.51397 6.8946837,10.49777 6.7326133,10.49897 c -0.2772323,0.0021 -0.542506,0.168851 -0.6648817,0.418055 -0.054626,0.111239 -0.061867,0.150619 -0.061774,0.335933 8.84e-5,0.185047 0.00715,0.223297 0.059543,0.322782 0.1080302,0.20513 0.2354999,0.316628 0.4561893,0.39903 0.1336385,0.0499 0.4142379,0.02782 0.5613891,-0.04418 z m 4.5196377,-0.01397 c 0.156992,-0.08368 0.242652,-0.1714 0.330613,-0.338549 0.05372,-0.10209 0.06063,-0.139075 0.06073,-0.325117 8.8e-5,-0.185314 -0.0071,-0.224694 -0.06177,-0.335933 -0.122376,-0.249204 -0.38765,-0.415999 -0.664882,-0.418055 -0.162071,-0.0012 -0.235497,0.015 -0.367044,0.08099 -0.436444,0.218933 -0.540345,0.812586 -0.20683,1.181747 0.160204,0.177328 0.33162,0.24536 0.593529,0.235564 0.15089,-0.0056 0.197114,-0.01745 0.315661,-0.08064 z M 6.0169003,8.9990585 V 7.4964566 H 4.5032499 2.9895994 V 8.9990585 10.50166 h 1.5136505 1.5136504 z m 4.4857087,0 V 7.4964566 H 9.0000071 7.4974052 V 8.9990585 10.50166 h 1.5026019 1.5026019 z m 4.507806,0 V 7.4964566 h -1.513651 -1.51365 V 8.9990585 10.50166 h 1.51365 1.513651 z M 7.0112693,7.4587925 C 7.348435,7.3401902 7.5521801,6.9890573 7.4942205,6.6264773 7.4553944,6.3835898 7.307657,6.183072 7.0840524,6.069773 6.9706245,6.0123 6.9333503,6.0049032 6.7571528,6.0049032 c -0.1680546,0 -0.2178641,0.00891 -0.3214161,0.057477 -0.1688021,0.079175 -0.2661187,0.1708354 -0.3545758,0.3339681 -0.070655,0.1303021 -0.075308,0.1518582 -0.075293,0.3488073 1.9e-5,0.2420557 0.038885,0.352712 0.1779463,0.5066363 0.2110676,0.2336265 0.5270458,0.3126736 0.8274551,0.2070006 z m 4.3649397,0.035653 c 0.24684,-0.045631 0.44969,-0.1967321 0.556734,-0.4147062 0.05385,-0.109655 0.06122,-0.1499301 0.06122,-0.3345833 0,-0.1969338 -0.0047,-0.2185154 -0.07531,-0.3488073 -0.08846,-0.1631327 -0.185773,-0.2547934 -0.354576,-0.3339681 -0.103552,-0.04857 -0.153361,-0.057477 -0.321416,-0.057477 -0.17258,0 -0.215355,0.00809 -0.323534,0.061219 -0.369636,0.1815232 -0.527909,0.6390244 -0.351157,1.0150474 0.09542,0.2029911 0.327032,0.376956 0.552889,0.4152712 0.05484,0.0093 0.105337,0.018084 0.11222,0.019513 0.0069,0.00143 0.0712,-0.00825 0.14293,-0.021509 z M 6.0169003,4.5023013 V 2.9886509 H 4.5032499 2.9895994 v 1.5136504 1.5136505 h 1.5136505 1.5136504 z m 4.4857087,0 V 2.9886509 H 9.0000071 7.4974052 v 1.5136504 1.5136505 h 1.5026019 1.5026019 z m 4.507806,0 V 2.9886509 h -1.513651 -1.51365 v 1.5136504 1.5136505 h 1.51365 1.513651 z"
     style="fill:none;fill-opacity:1;stroke-width:0.02209709" />
  <path
     transform="scale(1.3333333)"
     id="path4601"
     d="M 2.6912888,16.475921 C 2.606215,16.458022 2.4428152,16.398066 2.3281781,16.342685 2.1555236,16.259277 2.0890545,16.211124 1.940935,16.062147 1.7434473,15.863517 1.636204,15.683947 1.5497944,15.407214 L 1.4980461,15.241486 V 8.98801 2.7345344 L 1.5582476,2.5577577 C 1.6427951,2.3094916 1.7601541,2.1195506 1.9403266,1.9393781 2.1204991,1.7592055 2.3104401,1.6418465 2.5587063,1.5572991 l 0.1767766,-0.060202 h 6.2645242 6.2645239 l 0.177243,0.06013 c 0.442023,0.1499585 0.809581,0.4921533 0.960674,0.8943827 0.115953,0.3086846 0.110569,-0.010158 0.110569,6.5469507 0,6.8548835 0.0143,6.2917545 -0.169443,6.6723255 -0.08323,0.172396 -0.131983,0.239783 -0.281969,0.389769 -0.150057,0.150057 -0.217292,0.198684 -0.389769,0.281898 -0.382346,0.184469 0.20514,0.169735 -6.6874701,0.167712 -5.3163474,-0.0016 -6.1591121,-0.0062 -6.2930771,-0.03435 z M 5.9948033,13.495816 V 12.004262 H 4.5032499 3.0116965 v 1.491554 1.491553 h 1.4915534 1.4915534 z m 4.4857087,0 V 12.004262 H 9.0000071 7.5195023 v 1.491554 1.491553 h 1.4805048 1.4805049 z m 4.507806,0 v -1.491554 h -1.491554 -1.491553 v 1.491554 1.491553 h 1.491553 1.491554 z M 5.9948033,8.9990585 V 7.4964566 H 4.5032499 3.0116965 V 8.9990585 10.50166 h 1.4915534 1.4915534 z m 4.4857087,0 V 7.4964566 H 9.0000071 7.5195023 V 8.9990585 10.50166 h 1.4805048 1.4805049 z m 4.507806,0 V 7.4964566 H 13.496764 12.005211 V 8.9990585 10.50166 h 1.491553 1.491554 z M 5.9948033,4.5023013 V 3.010748 H 4.5032499 3.0116965 v 1.4915533 1.4915534 h 1.4915534 1.4915534 z m 4.4857087,0 V 3.010748 H 9.0000071 7.5195023 v 1.4915533 1.4915534 h 1.4805048 1.4805049 z m 4.507806,0 V 3.010748 h -1.491554 -1.491553 v 1.4915533 1.4915534 h 1.491553 1.491554 z"
     style="fill:none;fill-opacity:1;stroke-width:0.02209709" />
  <path
     transform="scale(1.3333333)"
     id="path4603"
     d="M 2.6912888,16.475921 C 2.606215,16.458022 2.4428152,16.398066 2.3281781,16.342685 2.1555236,16.259277 2.0890545,16.211124 1.940935,16.062147 1.7434473,15.863517 1.636204,15.683947 1.5497944,15.407214 L 1.4980461,15.241486 V 8.98801 2.7345344 L 1.5582476,2.5577577 C 1.6427951,2.3094916 1.7601541,2.1195506 1.9403266,1.9393781 2.1204991,1.7592055 2.3104401,1.6418465 2.5587063,1.5572991 l 0.1767766,-0.060202 h 6.2645242 6.2645239 l 0.177243,0.06013 c 0.442023,0.1499585 0.809581,0.4921533 0.960674,0.8943827 0.115953,0.3086846 0.110569,-0.010158 0.110569,6.5469507 0,6.8548835 0.0143,6.2917545 -0.169443,6.6723255 -0.08323,0.172396 -0.131983,0.239783 -0.281969,0.389769 -0.150057,0.150057 -0.217292,0.198684 -0.389769,0.281898 -0.382346,0.184469 0.20514,0.169735 -6.6874701,0.167712 -5.3163474,-0.0016 -6.1591121,-0.0062 -6.2930771,-0.03435 z M 5.9948033,13.495816 V 12.004262 H 4.5032499 3.0116965 v 1.491554 1.491553 h 1.4915534 1.4915534 z m 4.4857087,0 V 12.004262 H 9.0000071 7.5195023 v 1.491554 1.491553 h 1.4805048 1.4805049 z m 4.507806,0 v -1.491554 h -1.491554 -1.491553 v 1.491554 1.491553 h 1.491553 1.491554 z M 5.9948033,8.9990585 V 7.4964566 H 4.5032499 3.0116965 V 8.9990585 10.50166 h 1.4915534 1.4915534 z m 4.4857087,0 V 7.4964566 H 9.0000071 7.5195023 V 8.9990585 10.50166 h 1.4805048 1.4805049 z m 4.507806,0 V 7.4964566 H 13.496764 12.005211 V 8.9990585 10.50166 h 1.491553 1.491554 z M 5.9948033,4.5023013 V 3.010748 H 4.5032499 3.0116965 v 1.4915533 1.4915534 h 1.4915534 1.4915534 z m 4.4857087,0 V 3.010748 H 9.0000071 7.5195023 v 1.4915533 1.4915534 h 1.4805048 1.4805049 z m 4.507806,0 V 3.010748 h -1.491554 -1.491553 v 1.4915533 1.4915534 h 1.491553 1.491554 z"
     style="fill:none;fill-opacity:1;stroke-width:0.02209709" />
  <path
     transform="scale(1.3333333)"
     id="path4605"
     d="M 2.6912888,16.475921 C 2.606215,16.458022 2.4428152,16.398066 2.3281781,16.342685 2.1555236,16.259277 2.0890545,16.211124 1.940935,16.062147 1.7434473,15.863517 1.636204,15.683947 1.5497944,15.407214 L 1.4980461,15.241486 V 8.98801 2.7345344 L 1.5582476,2.5577577 C 1.6427951,2.3094916 1.7601541,2.1195506 1.9403266,1.9393781 2.1204991,1.7592055 2.3104401,1.6418465 2.5587063,1.5572991 l 0.1767766,-0.060202 h 6.2645242 6.2645239 l 0.177243,0.06013 c 0.442023,0.1499585 0.809581,0.4921533 0.960674,0.8943827 0.115953,0.3086846 0.110569,-0.010158 0.110569,6.5469507 0,6.8548835 0.0143,6.2917545 -0.169443,6.6723255 -0.08323,0.172396 -0.131983,0.239783 -0.281969,0.389769 -0.150057,0.150057 -0.217292,0.198684 -0.389769,0.281898 -0.382346,0.184469 0.20514,0.169735 -6.6874701,0.167712 -5.3163474,-0.0016 -6.1591121,-0.0062 -6.2930771,-0.03435 z M 5.9948033,13.495816 V 12.004262 H 4.5032499 3.0116965 v 1.491554 1.491553 h 1.4915534 1.4915534 z m 4.4857087,0 V 12.004262 H 9.0000071 7.5195023 v 1.491554 1.491553 h 1.4805048 1.4805049 z m 4.507806,0 v -1.491554 h -1.491554 -1.491553 v 1.491554 1.491553 h 1.491553 1.491554 z M 5.9948033,8.9990585 V 7.4964566 H 4.5032499 3.0116965 V 8.9990585 10.50166 h 1.4915534 1.4915534 z m 4.4857087,0 V 7.4964566 H 9.0000071 7.5195023 V 8.9990585 10.50166 h 1.4805048 1.4805049 z m 4.507806,0 V 7.4964566 H 13.496764 12.005211 V 8.9990585 10.50166 h 1.491553 1.491554 z M 5.9948033,4.5023013 V 3.010748 H 4.5032499 3.0116965 v 1.4915533 1.4915534 h 1.4915534 1.4915534 z m 4.4857087,0 V 3.010748 H 9.0000071 7.5195023 v 1.4915533 1.4915534 h 1.4805048 1.4805049 z m 4.507806,0 V 3.010748 h -1.491554 -1.491553 v 1.4915533 1.4915534 h 1.491553 1.491554 z"
     style="fill:none;fill-opacity:1;stroke-width:0.02209709" />
</svg>
